# xmcd
#
# Track frame offsets: 
#        150
#        12135
#        27726
#        45294
#        49213
#        58500
#        73631
#        86876
#        97025
#        108990
#        119681
#        129432
#
# Disc length: 2135 seconds
#
# Revision: 0
# Processed by: cddbd v1.5.2PL0 Copyright (c) Steve Scherf et al.
# Submitted via: ExactAudioCopyFreeDBPlugin 1.0
#
DISCID=a508550c
DTITLE=La Patrulla Espacial - Todos los ocasos
DYEAR=2009
DGENRE=
TTITLE0=Blues de algún lugar
TTITLE1=El perfume
TTITLE2=El hogar de nuestras vidas
TTITLE3=Me voy de casa
TTITLE4=Toda la noche
TTITLE5=Blues para la última salida del sol
TTITLE6=Todos los ocasos
TTITLE7=Boogie del humo
TTITLE8=Psicodélicos sonidos boogie
TTITLE9=Hacé lo que quieras
TTITLE10=El alma de las cosas muertas
TTITLE11=El cuervo dorado
EXTD=
EXTT0=
EXTT1=
EXTT2=
EXTT3=
EXTT4=
EXTT5=
EXTT6=
EXTT7=
EXTT8=
EXTT9=
EXTT10=
EXTT11=
PLAYORDER=
